<?xml version="1.0" encoding="UTF-8" standalone="no"?>
<!DOCTYPE svg PUBLIC "-//W3C//DTD SVG 1.0//EN" "http://www.w3.org/TR/2001/PR-SVG-20010719/DTD/svg10.dtd">
<svg width="12cm" height="10cm" viewBox="173 44 228 197" xmlns="http://www.w3.org/2000/svg" xmlns:xlink="http://www.w3.org/1999/xlink">
  <g>
    <rect style="fill: #ffffff" x="340" y="176" width="60" height="64"/>
    <rect style="fill: none; fill-opacity:0; stroke-width: 2; stroke-dasharray: 4; stroke: #000000" x="340" y="176" width="60" height="64"/>
  </g>
  <g>
    <path style="fill: #a5a585" d="M 256.985 90.2587 L 256.946,89.7607 L 256.837,89.2706 L 256.65,88.7804 L 256.394,88.298 L 256.075,87.8156 L 255.678,87.341 L 255.211,86.8741 L 254.674,86.4151 L 254.067,85.9638 L 253.398,85.5359 L 252.667,85.108 L 251.881,84.6878 L 251.017,84.291 L 250.107,83.9097 L 249.142,83.5441 L 248.115,83.1939 L 247.049,82.8671 L 245.929,82.5559 L 244.77,82.268 L 243.556,81.9957 L 242.319,81.739 L 241.035,81.5133 L 239.72,81.2955 L 238.389,81.1165 L 237.02,80.9609 L 235.627,80.8286 L 234.227,80.7119 L 232.803,80.6341 L 231.371,80.5641 L 229.932,80.5174 L 228.493,80.5174 L 228.493,80.5174 L 227.045,80.5174 L 225.606,80.5641 L 224.174,80.6341 L 222.75,80.7119 L 221.35,80.8286 L 219.957,80.9609 L 218.596,81.1165 L 217.257,81.2955 L 215.942,81.5133 L 214.659,81.739 L 213.422,81.9957 L 212.216,82.268 L 211.056,82.5559 L 209.936,82.8671 L 208.862,83.1939 L 207.835,83.5441 L 206.878,83.9097 L 205.96,84.291 L 205.104,84.6878 L 204.31,85.108 L 203.579,85.5359 L 202.91,85.9638 L 202.303,86.4151 L 201.766,86.8741 L 201.299,87.341 L 200.903,87.8156 L 200.584,88.298 L 200.327,88.7804 L 200.14,89.2706 L 200.039,89.7607 L 200,90.2587 L 200,90.2587 L 200.039,90.7567 L 200.14,91.2391 L 200.327,91.737 L 200.584,92.2194 L 200.903,92.7018 L 201.299,93.1764 L 201.766,93.6433 L 202.303,94.1023 L 202.91,94.5458 L 203.579,94.9815 L 204.31,95.4095 L 205.104,95.8296 L 205.96,96.2264 L 206.878,96.6077 L 207.835,96.9734 L 208.862,97.3235 L 209.936,97.6503 L 211.056,97.9615 L 212.216,98.2494 L 213.422,98.5217 L 214.659,98.7784 L 215.942,99.0041 L 217.257,99.2142 L 218.596,99.4009 L 219.957,99.5565 L 221.35,99.6888 L 222.75,99.7977 L 224.174,99.8833 L 225.606,99.9455 L 227.045,99.9922 L 228.493,100 L 228.493,100 L 229.932,99.9922 L 231.371,99.9455 L 232.803,99.8833 L 234.227,99.7977 L 235.627,99.6888 L 237.02,99.5565 L 238.389,99.4009 L 239.72,99.2142 L 241.035,99.0041 L 242.319,98.7784 L 243.556,98.5217 L 244.77,98.2494 L 245.929,97.9615 L 247.049,97.6503 L 248.115,97.3235 L 249.142,96.9734 L 250.107,96.6077 L 251.017,96.2264 L 251.881,95.8296 L 252.667,95.4095 L 253.398,94.9815 L 254.067,94.5458 L 254.674,94.1023 L 255.211,93.6433 L 255.678,93.1764 L 256.075,92.7018 L 256.394,92.2194 L 256.65,91.737 L 256.837,91.2391 L 256.946,90.7567 L 256.985,90.2587z"/>
    <path style="fill: none; fill-opacity:0; stroke-width: 0.02; stroke: #494936" d="M 256.65 90.1031 L 256.612,89.6051 L 256.51,89.1305 L 256.331,88.6481 L 256.082,88.1735 L 255.748,87.6911 L 255.343,87.2321 L 254.9,86.7652 L 254.355,86.3295 L 253.756,85.886 L 253.095,85.4503 L 252.363,85.0379 L 251.578,84.6256 L 250.729,84.2365 L 249.835,83.8475 L 248.854,83.4974 L 247.835,83.155 L 246.769,82.8282 L 245.664,82.5248 L 244.513,82.2447 L 243.315,81.9724 L 242.07,81.7312 L 240.801,81.5055 L 239.494,81.2955 L 238.172,81.1165 L 236.818,80.9609 L 235.425,80.8364 L 234.032,80.7119 L 232.616,80.6419 L 231.2,80.5797 L 229.753,80.5408 L 228.321,80.5174 L 228.321,80.5174 L 226.89,80.5408 L 225.458,80.5797 L 224.026,80.6419 L 222.626,80.7119 L 221.225,80.8364 L 219.84,80.9609 L 218.479,81.1165 L 217.148,81.2955 L 215.849,81.5055 L 214.581,81.7312 L 213.336,81.9724 L 212.138,82.2447 L 210.994,82.5248 L 209.874,82.8282 L 208.8,83.155 L 207.788,83.4974 L 206.824,83.8475 L 205.929,84.2365 L 205.073,84.6256 L 204.279,85.0379 L 203.564,85.4503 L 202.902,85.886 L 202.287,86.3295 L 201.758,86.7652 L 201.299,87.2321 L 200.903,87.6911 L 200.576,88.1735 L 200.319,88.6481 L 200.14,89.1305 L 200.039,89.6051 L 200,90.1031 L 200,90.1031 L 200.039,90.5855 L 200.14,91.0601 L 200.319,91.5503 L 200.576,92.0249 L 200.903,92.4995 L 201.299,92.9663 L 201.758,93.4254 L 202.287,93.8689 L 202.902,94.3046 L 203.564,94.7481 L 204.279,95.1683 L 205.073,95.5651 L 205.929,95.9619 L 206.824,96.3431 L 207.788,96.701 L 208.8,97.0434 L 209.874,97.3624 L 210.994,97.6736 L 212.138,97.9537 L 213.336,98.226 L 214.581,98.475 L 215.849,98.6929 L 217.148,98.8952 L 218.479,99.0741 L 219.84,99.2297 L 221.225,99.362 L 222.626,99.4787 L 224.026,99.5565 L 225.458,99.6188 L 226.89,99.6577 L 228.321,99.6732 L 228.321,99.6732 L 229.753,99.6577 L 231.2,99.6188 L 232.616,99.5565 L 234.032,99.4787 L 235.425,99.362 L 236.818,99.2297 L 238.172,99.0741 L 239.494,98.8952 L 240.801,98.6929 L 242.07,98.475 L 243.315,98.226 L 244.513,97.9537 L 245.664,97.6736 L 246.769,97.3624 L 247.835,97.0434 L 248.854,96.701 L 249.835,96.3431 L 250.729,95.9619 L 251.578,95.5651 L 252.363,95.1683 L 253.095,94.7481 L 253.756,94.3046 L 254.355,93.8689 L 254.9,93.4254 L 255.343,92.9663 L 255.748,92.4995 L 256.082,92.0249 L 256.331,91.5503 L 256.51,91.0601 L 256.612,90.5855 L 256.65,90.1031"/>
    <path style="fill: #a5a585" d="M 200 69.9125 L 200,90.4299 L 256.65,90.4299 L 256.65,69.9125 L 200,69.9125z"/>
    <path style="fill: #c9c9b6" d="M 256.985 69.7413 L 256.946,69.2356 L 256.837,68.7454 L 256.65,68.263 L 256.394,67.7806 L 256.075,67.2904 L 255.678,66.8158 L 255.211,66.3412 L 254.674,65.8977 L 254.067,65.4542 L 253.398,65.0029 L 252.667,64.5905 L 251.881,64.1704 L 251.017,63.7658 L 250.107,63.3923 L 249.142,63.0266 L 248.115,62.6687 L 247.049,62.342 L 245.929,62.0385 L 244.77,61.7429 L 243.556,61.4705 L 242.319,61.2216 L 241.035,60.9959 L 239.72,60.7858 L 238.389,60.5991 L 237.02,60.4435 L 235.627,60.3112 L 234.227,60.2023 L 232.803,60.1167 L 231.371,60.0467 L 229.932,60.0078 L 228.493,60 L 228.493,60 L 227.045,60.0078 L 225.606,60.0467 L 224.174,60.1167 L 222.75,60.2023 L 221.35,60.3112 L 219.957,60.4435 L 218.596,60.5991 L 217.257,60.7858 L 215.942,60.9959 L 214.659,61.2216 L 213.422,61.4705 L 212.216,61.7429 L 211.056,62.0385 L 209.936,62.342 L 208.862,62.6687 L 207.835,63.0266 L 206.878,63.3923 L 205.96,63.7658 L 205.104,64.1704 L 204.31,64.5905 L 203.579,65.0029 L 202.91,65.4542 L 202.303,65.8977 L 201.766,66.3412 L 201.299,66.8158 L 200.903,67.2904 L 200.584,67.7806 L 200.327,68.263 L 200.14,68.7454 L 200.039,69.2356 L 200,69.7413 L 200,69.7413 L 200.039,70.2315 L 200.14,70.7294 L 200.327,71.204 L 200.584,71.702 L 200.903,72.1766 L 201.299,72.659 L 201.766,73.1259 L 202.303,73.5771 L 202.91,74.0284 L 203.579,74.4641 L 204.31,74.892 L 205.104,75.3044 L 205.96,75.7012 L 206.878,76.0825 L 207.835,76.4559 L 208.862,76.7983 L 209.936,77.1329 L 211.056,77.4441 L 212.216,77.732 L 213.422,78.0043 L 214.659,78.261 L 215.942,78.4789 L 217.257,78.6968 L 218.596,78.8757 L 219.957,79.0313 L 221.35,79.1714 L 222.75,79.2725 L 224.174,79.3659 L 225.606,79.4281 L 227.045,79.467 L 228.493,79.4826 L 228.493,79.4826 L 229.932,79.467 L 231.371,79.4281 L 232.803,79.3659 L 234.227,79.2725 L 235.627,79.1714 L 237.02,79.0313 L 238.389,78.8757 L 239.72,78.6968 L 241.035,78.4789 L 242.319,78.261 L 243.556,78.0043 L 244.77,77.732 L 245.929,77.4441 L 247.049,77.1329 L 248.115,76.7983 L 249.142,76.4559 L 250.107,76.0825 L 251.017,75.7012 L 251.881,75.3044 L 252.667,74.892 L 253.398,74.4641 L 254.067,74.0284 L 254.674,73.5771 L 255.211,73.1259 L 255.678,72.659 L 256.075,72.1766 L 256.394,71.702 L 256.65,71.204 L 256.837,70.7294 L 256.946,70.2315 L 256.985,69.7413z"/>
    <path style="fill: none; fill-opacity:0; stroke-width: 0.02; stroke: #494936" d="M 256.65 69.5857 L 256.612,69.0877 L 256.51,68.6131 L 256.331,68.1385 L 256.082,67.6561 L 255.748,67.1659 L 255.343,66.7069 L 254.9,66.2634 L 254.355,65.8043 L 253.756,65.3686 L 253.095,64.9251 L 252.363,64.5205 L 251.578,64.1082 L 250.729,63.7113 L 249.835,63.3457 L 248.854,62.98 L 247.835,62.6454 L 246.769,62.3186 L 245.664,62.0074 L 244.513,61.7195 L 243.315,61.455 L 242.07,61.2138 L 240.801,60.9881 L 239.494,60.7858 L 238.172,60.5991 L 236.818,60.4435 L 235.425,60.3112 L 234.032,60.2023 L 232.616,60.1167 L 232.142,60.0934 L 224.501,60.0934 L 224.026,60.1167 L 222.626,60.2023 L 221.225,60.3112 L 219.84,60.4435 L 218.479,60.5991 L 217.148,60.7858 L 215.849,60.9881 L 214.581,61.2138 L 213.336,61.455 L 212.138,61.7195 L 210.994,62.0074 L 209.874,62.3186 L 208.8,62.6454 L 207.788,62.98 L 206.824,63.3457 L 205.929,63.7113 L 205.073,64.1082 L 204.279,64.5205 L 203.564,64.9251 L 202.902,65.3686 L 202.287,65.8043 L 201.758,66.2634 L 201.299,66.7069 L 200.903,67.1659 L 200.576,67.6561 L 200.319,68.1385 L 200.14,68.6131 L 200.039,69.0877 L 200,69.5857 L 200,69.5857 L 200.039,70.0603 L 200.14,70.5505 L 200.319,71.0329 L 200.576,71.5075 L 200.903,71.9821 L 201.299,72.4489 L 201.758,72.9002 L 202.287,73.3593 L 202.902,73.795 L 203.564,74.2307 L 204.279,74.6508 L 205.073,75.0477 L 205.929,75.4367 L 206.824,75.8257 L 207.788,76.1836 L 208.8,76.5182 L 209.874,76.8372 L 210.994,77.1484 L 212.138,77.4285 L 213.336,77.7008 L 214.581,77.9576 L 215.849,78.1599 L 217.148,78.3777 L 218.479,78.5489 L 219.84,78.7123 L 221.225,78.8524 L 222.626,78.9613 L 224.026,79.0469 L 225.458,79.1013 L 226.89,79.1325 L 228.321,79.1558 L 228.321,79.1558 L 229.753,79.1325 L 231.2,79.1013 L 232.616,79.0469 L 234.032,78.9613 L 235.425,78.8524 L 236.818,78.7123 L 238.172,78.5489 L 239.494,78.3777 L 240.801,78.1599 L 242.07,77.9576 L 243.315,77.7008 L 244.513,77.4285 L 245.664,77.1484 L 246.769,76.8372 L 247.835,76.5182 L 248.854,76.1836 L 249.835,75.8257 L 250.729,75.4367 L 251.578,75.0477 L 252.363,74.6508 L 253.095,74.2307 L 253.756,73.795 L 254.355,73.3593 L 254.9,72.9002 L 255.343,72.4489 L 255.748,71.9821 L 256.082,71.5075 L 256.331,71.0329 L 256.51,70.5505 L 256.612,70.0603 L 256.65,69.5857"/>
    <path style="fill: none; fill-opacity:0; stroke-width: 0.02; stroke: #000000" d="M 200 69.5857 L 200,90.0875"/>
    <path style="fill: none; fill-opacity:0; stroke-width: 0.02; stroke: #000000" d="M 256.65 69.5857 L 256.65,90.0875"/>
  </g>
  <g>
    <path style="fill: #a5a585" d="M 256.985 210.259 L 256.946,209.761 L 256.837,209.271 L 256.65,208.78 L 256.394,208.298 L 256.075,207.816 L 255.678,207.341 L 255.211,206.874 L 254.674,206.415 L 254.067,205.964 L 253.398,205.536 L 252.667,205.108 L 251.881,204.688 L 251.017,204.291 L 250.107,203.91 L 249.142,203.544 L 248.115,203.194 L 247.049,202.867 L 245.929,202.556 L 244.77,202.268 L 243.556,201.996 L 242.319,201.739 L 241.035,201.513 L 239.72,201.295 L 238.389,201.117 L 237.02,200.961 L 235.627,200.829 L 234.227,200.712 L 232.803,200.634 L 231.371,200.564 L 229.932,200.517 L 228.493,200.517 L 228.493,200.517 L 227.045,200.517 L 225.606,200.564 L 224.174,200.634 L 222.75,200.712 L 221.35,200.829 L 219.957,200.961 L 218.596,201.117 L 217.257,201.295 L 215.942,201.513 L 214.659,201.739 L 213.422,201.996 L 212.216,202.268 L 211.056,202.556 L 209.936,202.867 L 208.862,203.194 L 207.835,203.544 L 206.878,203.91 L 205.96,204.291 L 205.104,204.688 L 204.31,205.108 L 203.579,205.536 L 202.91,205.964 L 202.303,206.415 L 201.766,206.874 L 201.299,207.341 L 200.903,207.816 L 200.584,208.298 L 200.327,208.78 L 200.14,209.271 L 200.039,209.761 L 200,210.259 L 200,210.259 L 200.039,210.757 L 200.14,211.239 L 200.327,211.737 L 200.584,212.219 L 200.903,212.702 L 201.299,213.176 L 201.766,213.643 L 202.303,214.102 L 202.91,214.546 L 203.579,214.982 L 204.31,215.409 L 205.104,215.83 L 205.96,216.226 L 206.878,216.608 L 207.835,216.973 L 208.862,217.323 L 209.936,217.65 L 211.056,217.961 L 212.216,218.249 L 213.422,218.522 L 214.659,218.778 L 215.942,219.004 L 217.257,219.214 L 218.596,219.401 L 219.957,219.557 L 221.35,219.689 L 222.75,219.798 L 224.174,219.883 L 225.606,219.946 L 227.045,219.992 L 228.493,220 L 228.493,220 L 229.932,219.992 L 231.371,219.946 L 232.803,219.883 L 234.227,219.798 L 235.627,219.689 L 237.02,219.557 L 238.389,219.401 L 239.72,219.214 L 241.035,219.004 L 242.319,218.778 L 243.556,218.522 L 244.77,218.249 L 245.929,217.961 L 247.049,217.65 L 248.115,217.323 L 249.142,216.973 L 250.107,216.608 L 251.017,216.226 L 251.881,215.83 L 252.667,215.409 L 253.398,214.982 L 254.067,214.546 L 254.674,214.102 L 255.211,213.643 L 255.678,213.176 L 256.075,212.702 L 256.394,212.219 L 256.65,211.737 L 256.837,211.239 L 256.946,210.757 L 256.985,210.259z"/>
    <path style="fill: none; fill-opacity:0; stroke-width: 0.02; stroke: #494936" d="M 256.65 210.103 L 256.612,209.605 L 256.51,209.131 L 256.331,208.648 L 256.082,208.174 L 255.748,207.691 L 255.343,207.232 L 254.9,206.765 L 254.355,206.33 L 253.756,205.886 L 253.095,205.45 L 252.363,205.038 L 251.578,204.626 L 250.729,204.237 L 249.835,203.848 L 248.854,203.497 L 247.835,203.155 L 246.769,202.828 L 245.664,202.525 L 244.513,202.245 L 243.315,201.972 L 242.07,201.731 L 240.801,201.506 L 239.494,201.295 L 238.172,201.117 L 236.818,200.961 L 235.425,200.836 L 234.032,200.712 L 232.616,200.642 L 231.2,200.58 L 229.753,200.541 L 228.321,200.517 L 228.321,200.517 L 226.89,200.541 L 225.458,200.58 L 224.026,200.642 L 222.626,200.712 L 221.225,200.836 L 219.84,200.961 L 218.479,201.117 L 217.148,201.295 L 215.849,201.506 L 214.581,201.731 L 213.336,201.972 L 212.138,202.245 L 210.994,202.525 L 209.874,202.828 L 208.8,203.155 L 207.788,203.497 L 206.824,203.848 L 205.929,204.237 L 205.073,204.626 L 204.279,205.038 L 203.564,205.45 L 202.902,205.886 L 202.287,206.33 L 201.758,206.765 L 201.299,207.232 L 200.903,207.691 L 200.576,208.174 L 200.319,208.648 L 200.14,209.131 L 200.039,209.605 L 200,210.103 L 200,210.103 L 200.039,210.585 L 200.14,211.06 L 200.319,211.55 L 200.576,212.025 L 200.903,212.5 L 201.299,212.966 L 201.758,213.425 L 202.287,213.869 L 202.902,214.305 L 203.564,214.748 L 204.279,215.168 L 205.073,215.565 L 205.929,215.962 L 206.824,216.343 L 207.788,216.701 L 208.8,217.043 L 209.874,217.362 L 210.994,217.674 L 212.138,217.954 L 213.336,218.226 L 214.581,218.475 L 215.849,218.693 L 217.148,218.895 L 218.479,219.074 L 219.84,219.23 L 221.225,219.362 L 222.626,219.479 L 224.026,219.557 L 225.458,219.619 L 226.89,219.658 L 228.321,219.673 L 228.321,219.673 L 229.753,219.658 L 231.2,219.619 L 232.616,219.557 L 234.032,219.479 L 235.425,219.362 L 236.818,219.23 L 238.172,219.074 L 239.494,218.895 L 240.801,218.693 L 242.07,218.475 L 243.315,218.226 L 244.513,217.954 L 245.664,217.674 L 246.769,217.362 L 247.835,217.043 L 248.854,216.701 L 249.835,216.343 L 250.729,215.962 L 251.578,215.565 L 252.363,215.168 L 253.095,214.748 L 253.756,214.305 L 254.355,213.869 L 254.9,213.425 L 255.343,212.966 L 255.748,212.5 L 256.082,212.025 L 256.331,211.55 L 256.51,211.06 L 256.612,210.585 L 256.65,210.103"/>
    <path style="fill: #a5a585" d="M 200 189.912 L 200,210.43 L 256.65,210.43 L 256.65,189.912 L 200,189.912z"/>
    <path style="fill: #c9c9b6" d="M 256.985 189.741 L 256.946,189.236 L 256.837,188.745 L 256.65,188.263 L 256.394,187.781 L 256.075,187.29 L 255.678,186.816 L 255.211,186.341 L 254.674,185.898 L 254.067,185.454 L 253.398,185.003 L 252.667,184.591 L 251.881,184.17 L 251.017,183.766 L 250.107,183.392 L 249.142,183.027 L 248.115,182.669 L 247.049,182.342 L 245.929,182.039 L 244.77,181.743 L 243.556,181.471 L 242.319,181.222 L 241.035,180.996 L 239.72,180.786 L 238.389,180.599 L 237.02,180.443 L 235.627,180.311 L 234.227,180.202 L 232.803,180.117 L 231.371,180.047 L 229.932,180.008 L 228.493,180 L 228.493,180 L 227.045,180.008 L 225.606,180.047 L 224.174,180.117 L 222.75,180.202 L 221.35,180.311 L 219.957,180.443 L 218.596,180.599 L 217.257,180.786 L 215.942,180.996 L 214.659,181.222 L 213.422,181.471 L 212.216,181.743 L 211.056,182.039 L 209.936,182.342 L 208.862,182.669 L 207.835,183.027 L 206.878,183.392 L 205.96,183.766 L 205.104,184.17 L 204.31,184.591 L 203.579,185.003 L 202.91,185.454 L 202.303,185.898 L 201.766,186.341 L 201.299,186.816 L 200.903,187.29 L 200.584,187.781 L 200.327,188.263 L 200.14,188.745 L 200.039,189.236 L 200,189.741 L 200,189.741 L 200.039,190.231 L 200.14,190.729 L 200.327,191.204 L 200.584,191.702 L 200.903,192.177 L 201.299,192.659 L 201.766,193.126 L 202.303,193.577 L 202.91,194.028 L 203.579,194.464 L 204.31,194.892 L 205.104,195.304 L 205.96,195.701 L 206.878,196.082 L 207.835,196.456 L 208.862,196.798 L 209.936,197.133 L 211.056,197.444 L 212.216,197.732 L 213.422,198.004 L 214.659,198.261 L 215.942,198.479 L 217.257,198.697 L 218.596,198.876 L 219.957,199.031 L 221.35,199.171 L 222.75,199.273 L 224.174,199.366 L 225.606,199.428 L 227.045,199.467 L 228.493,199.483 L 228.493,199.483 L 229.932,199.467 L 231.371,199.428 L 232.803,199.366 L 234.227,199.273 L 235.627,199.171 L 237.02,199.031 L 238.389,198.876 L 239.72,198.697 L 241.035,198.479 L 242.319,198.261 L 243.556,198.004 L 244.77,197.732 L 245.929,197.444 L 247.049,197.133 L 248.115,196.798 L 249.142,196.456 L 250.107,196.082 L 251.017,195.701 L 251.881,195.304 L 252.667,194.892 L 253.398,194.464 L 254.067,194.028 L 254.674,193.577 L 255.211,193.126 L 255.678,192.659 L 256.075,192.177 L 256.394,191.702 L 256.65,191.204 L 256.837,190.729 L 256.946,190.231 L 256.985,189.741z"/>
    <path style="fill: none; fill-opacity:0; stroke-width: 0.02; stroke: #494936" d="M 256.65 189.586 L 256.612,189.088 L 256.51,188.613 L 256.331,188.138 L 256.082,187.656 L 255.748,187.166 L 255.343,186.707 L 254.9,186.263 L 254.355,185.804 L 253.756,185.369 L 253.095,184.925 L 252.363,184.521 L 251.578,184.108 L 250.729,183.711 L 249.835,183.346 L 248.854,182.98 L 247.835,182.645 L 246.769,182.319 L 245.664,182.007 L 244.513,181.72 L 243.315,181.455 L 242.07,181.214 L 240.801,180.988 L 239.494,180.786 L 238.172,180.599 L 236.818,180.443 L 235.425,180.311 L 234.032,180.202 L 232.616,180.117 L 232.142,180.093 L 224.501,180.093 L 224.026,180.117 L 222.626,180.202 L 221.225,180.311 L 219.84,180.443 L 218.479,180.599 L 217.148,180.786 L 215.849,180.988 L 214.581,181.214 L 213.336,181.455 L 212.138,181.72 L 210.994,182.007 L 209.874,182.319 L 208.8,182.645 L 207.788,182.98 L 206.824,183.346 L 205.929,183.711 L 205.073,184.108 L 204.279,184.521 L 203.564,184.925 L 202.902,185.369 L 202.287,185.804 L 201.758,186.263 L 201.299,186.707 L 200.903,187.166 L 200.576,187.656 L 200.319,188.138 L 200.14,188.613 L 200.039,189.088 L 200,189.586 L 200,189.586 L 200.039,190.06 L 200.14,190.55 L 200.319,191.033 L 200.576,191.507 L 200.903,191.982 L 201.299,192.449 L 201.758,192.9 L 202.287,193.359 L 202.902,193.795 L 203.564,194.231 L 204.279,194.651 L 205.073,195.048 L 205.929,195.437 L 206.824,195.826 L 207.788,196.184 L 208.8,196.518 L 209.874,196.837 L 210.994,197.148 L 212.138,197.429 L 213.336,197.701 L 214.581,197.958 L 215.849,198.16 L 217.148,198.378 L 218.479,198.549 L 219.84,198.712 L 221.225,198.852 L 222.626,198.961 L 224.026,199.047 L 225.458,199.101 L 226.89,199.132 L 228.321,199.156 L 228.321,199.156 L 229.753,199.132 L 231.2,199.101 L 232.616,199.047 L 234.032,198.961 L 235.425,198.852 L 236.818,198.712 L 238.172,198.549 L 239.494,198.378 L 240.801,198.16 L 242.07,197.958 L 243.315,197.701 L 244.513,197.429 L 245.664,197.148 L 246.769,196.837 L 247.835,196.518 L 248.854,196.184 L 249.835,195.826 L 250.729,195.437 L 251.578,195.048 L 252.363,194.651 L 253.095,194.231 L 253.756,193.795 L 254.355,193.359 L 254.9,192.9 L 255.343,192.449 L 255.748,191.982 L 256.082,191.507 L 256.331,191.033 L 256.51,190.55 L 256.612,190.06 L 256.65,189.586"/>
    <path style="fill: none; fill-opacity:0; stroke-width: 0.02; stroke: #000000" d="M 200 189.586 L 200,210.088"/>
    <path style="fill: none; fill-opacity:0; stroke-width: 0.02; stroke: #000000" d="M 256.65 189.586 L 256.65,210.088"/>
  </g>
  <g>
    <path style="fill: none; fill-opacity:0; stroke-width: 2; stroke: #000000" d="M 266.623,199.694 A 60.0721,60.0721 0 0 0 256.986,79.9962"/>
    <polygon style="fill: #000000" points="259.219,200.106 269.452,195.602 266.71,200.473 268.962,205.59 "/>
    <polygon style="fill: none; fill-opacity:0; stroke-width: 2; stroke: #000000" points="259.219,200.106 269.452,195.602 266.71,200.473 268.962,205.59 "/>
  </g>
  <text font-size="12.8" style="fill: #000000;text-anchor:middle;font-family:sans-serif;font-style:normal;font-weight:normal" x="228" y="56.45">
    <tspan x="228" y="56.45">Global list</tspan>
  </text>
  <text font-size="12.8" style="fill: #000000;text-anchor:middle;font-family:sans-serif;font-style:normal;font-weight:normal" x="228" y="236.45">
    <tspan x="228" y="236.45">Local list</tspan>
  </text>
  <g>
    <rect style="fill: #ffffff" x="310.5" y="136.55" width="19" height="14.9"/>
    <text font-size="12.8" style="fill: #000000;text-anchor:middle;font-family:sans-serif;font-style:normal;font-weight:normal" x="320" y="148.45">
      <tspan x="320" y="148.45">OR</tspan>
    </text>
  </g>
  <g>
    <path style="fill: none; fill-opacity:0; stroke-width: 2; stroke: #000000" d="M 228.43,180 A 27.3282,27.3282 0 1 0 190.977,197.649"/>
    <polygon style="fill: #000000" points="197.771,199.762 187.416,203.979 190.293,199.186 188.184,194.009 "/>
    <polygon style="fill: none; fill-opacity:0; stroke-width: 2; stroke: #000000" points="197.771,199.762 187.416,203.979 190.293,199.186 188.184,194.009 "/>
  </g>
  <g>
    <rect style="fill: #ffffff" x="189.9" y="132.364" width="28.2" height="30.9"/>
    <text font-size="12.8" style="fill: #000000;text-anchor:middle;font-family:sans-serif;font-style:normal;font-weight:normal" x="204" y="144.264">
      <tspan x="204" y="144.264">AND</tspan>
      <tspan x="204" y="160.264">NOT</tspan>
    </text>
  </g>
  <text font-size="12.7998" style="fill: #000000;text-anchor:start;font-family:sans-serif;font-style:normal;font-weight:normal" x="348" y="196">
    <tspan x="348" y="196">1. OR</tspan>
    <tspan x="348" y="212">2. AND</tspan>
    <tspan x="348" y="228">3. NOT</tspan>
  </text>
</svg>
